<?xml version="1.0" encoding="utf-8"?>
<svg width="420" height="420" stroke="#000" fill="none" xmlns="http://www.w3.org/2000/svg" xmlns:xlink="http://www.w3.org/1999/xlink">
  <defs>
    <path id="path-0" d="M209,15a195,195 0 1,0 2,0z" style="fill: none;"/>
  </defs>
  <path stroke-width="26" d="M209,15a195,195 0 1,0 2,0z"/>
  <path stroke-width="18" d="m210,15v390m195-195H15M59,90a260,260 0 0,0 302,0 m0,240 a260,260 0 0,0-302,0M195,20a250,250 0 0,0 0,382 m30,0 a250,250 0 0,0 0-382"/>
  <text style="fill: rgb(255, 255, 255); font-family: Arial, sans-serif; font-size: 28px; stroke: rgba(0, 0, 0, 0); white-space: pre;" transform="matrix(1.052331, 0, 0, 1.053249, -10.843981, -10.613547)"><textPath xlink:href="#path-0">NWOLFHUB NOTES. SELECT THE WEB SERVER. THANKS FOR USING THIS SHIT . S0M31////<tspan x="0" dy="1em">​</tspan></textPath></text>
</svg>